<svg width="800" height="800" viewBox="0 0 800 800" fill="none" xmlns="http://www.w3.org/2000/svg">
<rect width="800" height="800" fill="white"/>
<path fill-rule="evenodd" clip-rule="evenodd" d="M185.427 217.427H507.304C566.172 217.427 613.893 265.148 613.893 324.016C613.893 382.883 566.172 430.605 507.304 430.605H292.016C233.148 430.605 185.427 382.883 185.427 324.016V217.427ZM101 324.016V133H507.304C612.799 133 698.32 218.521 698.32 324.016C698.32 416.432 632.691 493.519 545.496 511.213L676.444 641.194C643.595 674.287 590.139 674.485 557.047 641.637L429.501 515.032H292.016C186.521 515.032 101 429.511 101 324.016Z" fill="black"/>
<path d="M185.427 624.787C185.427 648.1 166.527 667 143.213 667C119.9 667 101 648.1 101 624.787C101 601.473 119.9 582.573 143.213 582.573C166.527 582.573 185.427 601.473 185.427 624.787Z" fill="#D9D9D9"/>
</svg>
